<svg width="670" height="280" xmlns="http://www.w3.org/2000/svg" font-family="sans-serif" font-size="14px">
  <style>
    .title { font-size: 16px; font-weight: bold; text-anchor: middle; }
    .group-box { fill: none; stroke: #ccc; stroke-width: 1; rx: 5; ry: 5; }
    .group-label { font-size: 12px; font-style: italic; fill: #666; }
    .node-rect { stroke-width: 1.5; rx: 4; ry: 4; }
    .user-device-node { fill: #FFDDC1; stroke: #333; }
    .cloud-node { fill: #C1E1FF; stroke: #333; }
    .frps-node { fill: #D4EDDA; stroke: #333; }
    .arrow-line { stroke: #333; stroke-width: 1.5; fill: none; }
    .arrow-head { fill: #333; }
    .arrow-label { font-size: 11px; fill: #333; font-weight: bold; }
  </style>
  <!-- Groups -->
  <rect x="10" y="30" width="280" height="200" class="group-box"/>
  <text x="150" y="50" class="group-label">用户设备 (User's Device)</text>
  <rect x="310" y="30" width="200" height="200" class="group-box"/>
  <text x="410" y="50" class="group-label">云服务器 (Cloud Server)</text>
  <rect x="530" y="30" width="130" height="120" class="group-box"/>
  <text x="595" y="50" class="group-label">FRPS 服务器</text>
  <!-- Nodes -->
  <rect x="40" y="70" width="220" height="40" class="node-rect user-device-node"/>
  <text x="150" y="95" text-anchor="middle">PySide6 客户端 GUI</text>
  <rect x="40" y="130" width="220" height="40" class="node-rect user-device-node"/>
  <text x="150" y="155" text-anchor="middle">frpc 核心进程</text>
  <rect x="40" y="190" width="220" height="40" class="node-rect user-device-node"/>
  <text x="150" y="215" text-anchor="middle">操作系统密钥环</text>
  <rect x="330" y="70" width="160" height="40" class="node-rect cloud-node"/>
  <text x="410" y="95" text-anchor="middle">Flask 后端 API</text>
  <rect x="330" y="130" width="160" height="40" class="node-rect cloud-node"/>
  <text x="410" y="155" text-anchor="middle">SQLite 数据库</text>
  <rect x="545" y="70" width="100" height="40" class="node-rect frps-node"/>
  <text x="595" y="95" text-anchor="middle">FRPS 服务</text>
  <!-- Arrows -->
  <!-- 1. API请求 -->
  <path d="M 260 90 L 330 90" class="arrow-line"/>
  <polygon points="325,85 335,90 325,95" class="arrow-head"/>
  <text x="295" y="85" class="arrow-label">1. API请求</text>
  <!-- 2. 读写数据 -->
  <path d="M 410 110 L 410 130" class="arrow-line"/>
  <polygon points="405,125 410,135 415,125" class="arrow-head"/>
  <text x="415" y="125" class="arrow-label">2.</text>
  <!-- 3. 加密解密 -->
  <path d="M 150 180 q 0 -20 -40 -20 l -30 0 q -20 0 -20 -20 l 0 -50 q 0 -20 20 -20 l 30 0 q 40 0 40 -20" stroke-dasharray="4,2" class="arrow-line"/>
  <polygon points="115,115 110,105 105,115" class="arrow-head"/>
  <text x="60" y="120" class="arrow-label">3. 加密/解密</text>
  <!-- 4. 启动进程 -->
  <path d="M 150 110 L 150 130" class="arrow-line"/>
  <polygon points="145,125 150,135 155,125" class="arrow-head"/>
  <text x="155" y="125" class="arrow-label">4.</text>
  <!-- 5. 建立隧道 -->
  <path d="M 260 150 L 545 150 L 545 110" class="arrow-line"/>
  <polygon points="540,115 550,110 540,105" class="arrow-head"/>
  <text x="400" y="145" class="arrow-label">5. 建立FRP隧道</text>
</svg>
